<?xml version="1.0" encoding="utf-8"?>  
<!-- Generator: Adobe Illustrator 22.1.0, SVG Export Plug-In . SVG Version: 6.00 Build 0)  -->
<svg version="1.1" id="Layer_1" xmlns="http://www.w3.org/2000/svg" xmlns:xlink="http://www.w3.org/1999/xlink" x="0px" y="0px"
	 width="100" height="90" viewBox="0 0 172 172" style="enable-background:new 0 0 172 172;" xml:space="preserve">
<style type="text/css">
	.st0{fill:#FFFFFF;stroke:#A7A9AC;}
	.st1{fill:#ED1C24;}
	.st2{fill:#A7A9AC;}
	.st3{fill:#444C4C;}
</style>
<circle class="st0" cx="86.5" cy="85.8" r="85"/>
<path class="st1" d="M140,139.2l-3.1-3.1c9.1-8.8,13.6-18.1,17.7-29.2l4.9,2.1C156.5,120.4,149.2,129.8,140,139.2z"/>
<g id="Major_Ticks_7_">
	<path class="st2" d="M38.3,133.9l-5.6,5.6l-1.4,1.4c-0.2-0.2-0.5-0.5-0.7-0.7l7-7C37.8,133.4,38,133.7,38.3,133.9z"/>
	<path class="st2" d="M86.7,5.8V15c-0.2,0-0.5,0-0.7,0h-0.3V5.8c0.2,0,0.3,0,0.5,0C86.4,5.8,86.5,5.8,86.7,5.8z"/>
	<path class="st2" d="M54.8,22.5c-0.3,0.2-0.6,0.3-0.9,0.5l-3.2-6.4l-0.9-1.8c0.3-0.2,0.6-0.3,0.9-0.5l0.9,1.8L54.8,22.5z"/>
	<path class="st2" d="M30,43.8c-0.2,0.3-0.4,0.5-0.6,0.8l-5.8-4.2L22,39.1c0.2-0.3,0.4-0.5,0.6-0.8l1.6,1.2L30,43.8z"/>
	<path class="st2" d="M17.7,73.9c0,0.3-0.1,0.7-0.1,1l-7.3-1.2l-2-0.3c0-0.3,0.1-0.7,0.1-1l2,0.3L17.7,73.9z"/>
	<path class="st2" d="M20.9,107l-7.3,2.4l-1.9,0.6c-0.1-0.3-0.2-0.6-0.3-0.9l1.9-0.6l7.2-2.4C20.7,106.4,20.8,106.7,20.9,107z"/>
	<path class="st2" d="M141.8,140.2c-0.2,0.2-0.5,0.5-0.7,0.7l-1.4-1.4l-5.8-5.8c0.2-0.2,0.5-0.5,0.7-0.7L141.8,140.2z"/>
	<path class="st2" d="M161,109c-0.1,0.3-0.2,0.6-0.3,0.9l-1.9-0.6l-7.6-2.5c0.1-0.3,0.2-0.6,0.3-0.9l7.6,2.5L161,109z"/>
	<path class="st2" d="M164.1,73.4l-2,0.3l-7.7,1.2c0-0.3-0.1-0.7-0.1-1l7.7-1.2l2-0.3C164,72.7,164.1,73.1,164.1,73.4z"/>
	<path class="st2" d="M150.5,39.1l-1.6,1.2l-6.1,4.4c-0.2-0.3-0.4-0.5-0.6-0.8l6.1-4.4l1.6-1.2C150.1,38.6,150.3,38.9,150.5,39.1z"
		/>
	<path class="st2" d="M122.7,14.8l-0.9,1.8l-3.3,6.6c-0.3-0.2-0.6-0.3-0.9-0.5l3.3-6.6l0.9-1.8C122.1,14.5,122.4,14.6,122.7,14.8z"
		/>
</g>
<path class="st2" d="M164.1,73.4c0-0.3-0.1-0.7-0.1-1c-1.9-12.2-6.6-23.6-13.5-33.3c-0.2-0.3-0.4-0.5-0.6-0.8
	c-7.1-9.8-16.4-17.9-27.2-23.6c-0.3-0.2-0.6-0.3-0.9-0.5c-10.5-5.4-22.5-8.4-35-8.5c-0.2,0-0.3,0-0.5,0c-0.2,0-0.3,0-0.5,0
	c-12.6,0.1-24.5,3.1-35.1,8.5c-0.3,0.1-0.6,0.3-0.9,0.5C39,20.4,29.7,28.5,22.5,38.3c-0.2,0.3-0.4,0.5-0.6,0.8
	c-6.9,9.7-11.6,21-13.5,33.3c0,0.3-0.1,0.7-0.1,1C7.8,77,7.5,80.8,7.5,84.5c0,8.5,1.4,16.8,3.9,24.5c0.1,0.3,0.2,0.6,0.3,0.9
	c3.9,11.5,10.4,21.8,18.9,30.2c0.2,0.2,0.5,0.5,0.7,0.7c14.2,13.8,33.6,22.4,54.9,22.4c21.3,0,40.7-8.5,54.9-22.4
	c0.2-0.2,0.5-0.5,0.7-0.7c8.4-8.4,14.9-18.7,18.8-30.2c0.1-0.3,0.2-0.6,0.3-0.9c2.5-7.7,3.9-15.9,3.9-24.5
	C164.9,80.8,164.6,77,164.1,73.4z M159.1,108.4c-0.1,0.3-0.2,0.6-0.3,0.9c-3.8,11.2-10.2,21.2-18.4,29.4c-0.2,0.2-0.5,0.5-0.7,0.7
	c-13.8,13.5-32.7,21.8-53.5,21.8c-20.8,0-39.7-8.3-53.5-21.8c-0.2-0.2-0.5-0.5-0.7-0.7c-8.2-8.2-14.5-18.2-18.4-29.4
	c-0.1-0.3-0.2-0.6-0.3-0.9c-2.5-7.5-3.8-15.5-3.8-23.9c0-3.7,0.3-7.3,0.8-10.8c0-0.3,0.1-0.7,0.1-1c1.9-11.9,6.5-23,13.1-32.4
	c0.2-0.3,0.4-0.5,0.6-0.8c6.9-9.6,16-17.4,26.5-23c0.3-0.2,0.6-0.3,0.9-0.5c10.3-5.2,21.9-8.2,34.2-8.3c0.2,0,0.3,0,0.5,0
	c0.2,0,0.3,0,0.5,0c12.3,0.1,23.9,3,34.1,8.3c0.3,0.2,0.6,0.3,0.9,0.5c10.5,5.5,19.6,13.4,26.5,23c0.2,0.3,0.4,0.5,0.6,0.8
	c6.7,9.5,11.3,20.5,13.1,32.4c0.1,0.3,0.1,0.7,0.1,1c0.5,3.5,0.8,7.2,0.8,10.8C162.9,92.9,161.6,100.9,159.1,108.4z"/>
<polygon id="Needle_7_" class="st1" points="34.6,136 37.5,135.4 86.3,86.6 86.3,84.3 84,84.3 35.2,133.1 "/>
<g id="Tick_Labels_7_">
	<g>
		<g>
			<path class="st3" d="M81.1,23.5c0.1,0.5,0.3,0.8,0.7,1c0.2,0.1,0.4,0.1,0.7,0.1c0.5,0,0.9-0.2,1.2-0.5s0.4-0.7,0.4-1.1
				c0-0.5-0.1-0.9-0.4-1.1c-0.3-0.3-0.7-0.4-1.1-0.4c-0.3,0-0.6,0.1-0.8,0.2c-0.2,0.1-0.4,0.3-0.6,0.5l-0.8,0l0.5-3.8h3.6v0.8h-3
				l-0.3,1.9c0.2-0.1,0.3-0.2,0.5-0.3c0.3-0.1,0.6-0.2,0.9-0.2c0.6,0,1.2,0.2,1.6,0.6s0.7,0.9,0.7,1.6c0,0.7-0.2,1.2-0.6,1.7
				c-0.4,0.5-1.1,0.8-2,0.8c-0.6,0-1.1-0.2-1.5-0.5c-0.4-0.3-0.7-0.8-0.7-1.5H81.1z"/>
			<path class="st3" d="M90.6,19.4c0.3,0.6,0.5,1.4,0.5,2.4c0,1-0.1,1.7-0.4,2.4c-0.4,0.9-1.1,1.3-2,1.3c-0.8,0-1.5-0.4-1.9-1.1
				c-0.3-0.6-0.5-1.4-0.5-2.5c0-0.8,0.1-1.5,0.3-2c0.4-1.1,1.1-1.6,2.1-1.6C89.5,18.3,90.2,18.6,90.6,19.4z M89.7,24
				c0.3-0.4,0.4-1.2,0.4-2.3c0-0.8-0.1-1.4-0.3-2c-0.2-0.5-0.6-0.8-1.1-0.8c-0.5,0-0.9,0.2-1.1,0.7c-0.2,0.5-0.4,1.2-0.4,2.2
				c0,0.7,0.1,1.3,0.2,1.7c0.2,0.7,0.6,1,1.2,1C89,24.6,89.4,24.4,89.7,24z"/>
		</g>
		<g>
			<path class="st3" d="M115.9,128.7V128c0.6-0.1,1.1-0.2,1.3-0.3c0.3-0.1,0.4-0.5,0.6-1h0.7v7h-0.9v-5H115.9z"/>
			<path class="st3" d="M125.7,127.7c0.3,0.6,0.5,1.4,0.5,2.4c0,1-0.1,1.7-0.4,2.4c-0.4,0.9-1.1,1.3-2,1.3c-0.8,0-1.5-0.4-1.9-1.1
				c-0.3-0.6-0.5-1.4-0.5-2.5c0-0.8,0.1-1.5,0.3-2c0.4-1.1,1.1-1.6,2.1-1.6C124.6,126.6,125.3,127,125.7,127.7z M124.8,132.4
				c0.3-0.4,0.4-1.2,0.4-2.3c0-0.8-0.1-1.4-0.3-2c-0.2-0.5-0.6-0.8-1.1-0.8c-0.5,0-0.9,0.2-1.1,0.7c-0.2,0.5-0.4,1.2-0.4,2.2
				c0,0.7,0.1,1.3,0.2,1.7c0.2,0.7,0.6,1,1.2,1C124.2,133,124.5,132.8,124.8,132.4z"/>
			<path class="st3" d="M131.8,127.7c0.3,0.6,0.5,1.4,0.5,2.4c0,1-0.1,1.7-0.4,2.4c-0.4,0.9-1.1,1.3-2,1.3c-0.8,0-1.5-0.4-1.9-1.1
				c-0.3-0.6-0.5-1.4-0.5-2.5c0-0.8,0.1-1.5,0.3-2c0.4-1.1,1.1-1.6,2.1-1.6C130.7,126.6,131.4,127,131.8,127.7z M130.9,132.4
				c0.3-0.4,0.4-1.2,0.4-2.3c0-0.8-0.1-1.4-0.3-2c-0.2-0.5-0.6-0.8-1.1-0.8c-0.5,0-0.9,0.2-1.1,0.7c-0.2,0.5-0.4,1.2-0.4,2.2
				c0,0.7,0.1,1.3,0.2,1.7c0.2,0.7,0.6,1,1.2,1C130.2,133,130.6,132.8,130.9,132.4z"/>
		</g>
		<g>
			<path class="st3" d="M53.8,34v-1.7h-3.1v-0.9l3.2-4.4h0.7v4.5h1v0.8h-1V34H53.8z M53.8,31.6v-3.2l-2.2,3.2H53.8z"/>
			<path class="st3" d="M61.2,28.2c0.3,0.6,0.5,1.4,0.5,2.4c0,1-0.1,1.7-0.4,2.4c-0.4,0.9-1.1,1.3-2,1.3c-0.8,0-1.5-0.4-1.9-1.1
				c-0.3-0.6-0.5-1.4-0.5-2.5c0-0.8,0.1-1.5,0.3-2c0.4-1.1,1.1-1.6,2.1-1.6C60.2,27,60.8,27.4,61.2,28.2z M60.3,32.8
				c0.3-0.4,0.4-1.2,0.4-2.3c0-0.8-0.1-1.4-0.3-2c-0.2-0.5-0.6-0.8-1.1-0.8c-0.5,0-0.9,0.2-1.1,0.7c-0.2,0.5-0.4,1.2-0.4,2.2
				c0,0.7,0.1,1.3,0.2,1.7c0.2,0.7,0.6,1,1.2,1C59.7,33.4,60.1,33.2,60.3,32.8z"/>
		</g>
		<g>
			<path class="st3" d="M34.3,52.7c-0.4-0.5-0.6-1-0.6-1.7h0.9c0,0.5,0.1,0.8,0.3,1c0.2,0.4,0.6,0.6,1.2,0.6c0.5,0,0.8-0.1,1.1-0.4
				s0.4-0.6,0.4-1c0-0.5-0.1-0.8-0.4-1c-0.3-0.2-0.7-0.3-1.2-0.3c-0.1,0-0.1,0-0.2,0c-0.1,0-0.1,0-0.2,0v-0.8c0.1,0,0.2,0,0.2,0
				s0.1,0,0.2,0c0.3,0,0.6-0.1,0.8-0.2c0.4-0.2,0.6-0.5,0.6-1c0-0.3-0.1-0.6-0.4-0.8s-0.5-0.3-0.9-0.3c-0.6,0-1,0.2-1.2,0.6
				c-0.1,0.2-0.2,0.5-0.2,0.9h-0.9c0-0.5,0.1-1,0.3-1.3c0.4-0.7,1-1,1.9-1c0.7,0,1.3,0.2,1.7,0.5s0.6,0.8,0.6,1.4
				c0,0.4-0.1,0.8-0.3,1c-0.1,0.2-0.3,0.3-0.6,0.4c0.4,0.1,0.7,0.3,0.9,0.6c0.2,0.3,0.3,0.6,0.3,1.1c0,0.7-0.2,1.2-0.7,1.6
				s-1.1,0.6-1.9,0.6C35.3,53.3,34.7,53.1,34.3,52.7z"/>
			<path class="st3" d="M44.2,47.3c0.3,0.6,0.5,1.4,0.5,2.4c0,1-0.1,1.7-0.4,2.4c-0.4,0.9-1.1,1.3-2,1.3c-0.8,0-1.5-0.4-1.9-1.1
				c-0.3-0.6-0.5-1.4-0.5-2.5c0-0.8,0.1-1.5,0.3-2c0.4-1.1,1.1-1.6,2.1-1.6C43.2,46.2,43.8,46.5,44.2,47.3z M43.3,51.9
				c0.3-0.4,0.4-1.2,0.4-2.3c0-0.8-0.1-1.4-0.3-2c-0.2-0.5-0.6-0.8-1.1-0.8c-0.5,0-0.9,0.2-1.1,0.7c-0.2,0.5-0.4,1.2-0.4,2.2
				c0,0.7,0.1,1.3,0.2,1.7c0.2,0.7,0.6,1,1.2,1C42.7,52.5,43.1,52.3,43.3,51.9z"/>
		</g>
		<g>
			<path class="st3" d="M23.2,78.3c0.2-0.4,0.6-0.9,1.3-1.2l0.9-0.5c0.4-0.2,0.7-0.5,0.9-0.6c0.3-0.3,0.4-0.6,0.4-0.9
				c0-0.4-0.1-0.7-0.4-1s-0.6-0.4-1-0.4c-0.6,0-1,0.2-1.2,0.7c-0.1,0.2-0.2,0.6-0.2,1H23c0-0.6,0.1-1.1,0.3-1.5c0.4-0.7,1.1-1,2-1
				c0.8,0,1.4,0.2,1.8,0.6c0.4,0.4,0.6,0.9,0.6,1.4c0,0.6-0.2,1-0.6,1.4c-0.2,0.2-0.6,0.5-1.2,0.8l-0.7,0.4
				c-0.3,0.2-0.6,0.3-0.8,0.5c-0.3,0.3-0.5,0.6-0.6,0.9h3.8v0.8h-4.8C22.8,79.3,22.9,78.8,23.2,78.3z"/>
			<path class="st3" d="M33.2,74c0.3,0.6,0.5,1.4,0.5,2.4c0,1-0.1,1.7-0.4,2.4c-0.4,0.9-1.1,1.3-2,1.3c-0.8,0-1.5-0.4-1.9-1.1
				c-0.3-0.6-0.5-1.4-0.5-2.5c0-0.8,0.1-1.5,0.3-2c0.4-1.1,1.1-1.6,2.1-1.6C32.1,72.9,32.8,73.3,33.2,74z M32.3,78.7
				c0.3-0.4,0.4-1.2,0.4-2.3c0-0.8-0.1-1.4-0.3-2c-0.2-0.5-0.6-0.8-1.1-0.8c-0.5,0-0.9,0.2-1.1,0.7c-0.2,0.5-0.4,1.2-0.4,2.2
				c0,0.7,0.1,1.3,0.2,1.7c0.2,0.7,0.6,1,1.2,1C31.7,79.3,32,79.1,32.3,78.7z"/>
		</g>
		<g>
			<path class="st3" d="M25.4,102.5v-0.7c0.6-0.1,1.1-0.2,1.3-0.3c0.3-0.1,0.4-0.5,0.6-1H28v7h-0.9v-5H25.4z"/>
			<path class="st3" d="M35.2,101.6c0.3,0.6,0.5,1.4,0.5,2.4c0,1-0.1,1.7-0.4,2.4c-0.4,0.9-1.1,1.3-2,1.3c-0.8,0-1.5-0.4-1.9-1.1
				c-0.3-0.6-0.5-1.4-0.5-2.5c0-0.8,0.1-1.5,0.3-2c0.4-1.1,1.1-1.6,2.1-1.6C34.1,100.4,34.8,100.8,35.2,101.6z M34.3,106.2
				c0.3-0.4,0.4-1.2,0.4-2.3c0-0.8-0.1-1.4-0.3-2c-0.2-0.5-0.6-0.8-1.1-0.8c-0.5,0-0.9,0.2-1.1,0.7c-0.2,0.5-0.4,1.2-0.4,2.2
				c0,0.7,0.1,1.3,0.2,1.7c0.2,0.7,0.6,1,1.2,1C33.7,106.8,34,106.6,34.3,106.2z"/>
		</g>
		<g>
			<path class="st3" d="M137.1,75.8c-0.3-0.3-0.4-0.6-0.4-1c0-0.5,0.2-1,0.6-1.3c0.4-0.4,0.9-0.6,1.6-0.6c0.7,0,1.2,0.2,1.6,0.5
				c0.4,0.4,0.6,0.8,0.6,1.2c0,0.4-0.1,0.8-0.3,1.1c-0.1,0.2-0.3,0.3-0.6,0.4c0.3,0.1,0.5,0.3,0.7,0.5c0.3,0.3,0.5,0.7,0.5,1.3
				c0,0.6-0.2,1.1-0.6,1.6s-1,0.6-1.8,0.6c-0.7,0-1.3-0.2-1.7-0.6c-0.5-0.4-0.7-0.9-0.7-1.6c0-0.4,0.1-0.8,0.3-1.1s0.5-0.5,0.9-0.7
				C137.4,76.1,137.2,76,137.1,75.8z M139.9,79c0.3-0.2,0.4-0.5,0.4-1c0-0.5-0.1-0.8-0.4-1s-0.6-0.4-1.1-0.4c-0.4,0-0.8,0.1-1,0.4
				c-0.3,0.2-0.4,0.6-0.4,1c0,0.4,0.1,0.7,0.4,0.9c0.2,0.3,0.6,0.4,1.1,0.4C139.3,79.3,139.6,79.2,139.9,79z M139.7,75.5
				c0.2-0.2,0.3-0.5,0.3-0.8c0-0.3-0.1-0.5-0.3-0.7c-0.2-0.2-0.5-0.3-1-0.3c-0.4,0-0.7,0.1-0.9,0.3c-0.2,0.2-0.3,0.5-0.3,0.8
				c0,0.3,0.1,0.6,0.4,0.8c0.2,0.2,0.5,0.3,0.9,0.3C139.2,75.9,139.5,75.7,139.7,75.5z"/>
			<path class="st3" d="M146.8,74c0.3,0.6,0.5,1.4,0.5,2.4c0,1-0.1,1.7-0.4,2.4c-0.4,0.9-1.1,1.3-2,1.3c-0.8,0-1.5-0.4-1.9-1.1
				c-0.3-0.6-0.5-1.4-0.5-2.5c0-0.8,0.1-1.5,0.3-2c0.4-1.1,1.1-1.6,2.1-1.6C145.8,72.9,146.4,73.3,146.8,74z M146,78.7
				c0.3-0.4,0.4-1.2,0.4-2.3c0-0.8-0.1-1.4-0.3-2c-0.2-0.5-0.6-0.8-1.1-0.8c-0.5,0-0.9,0.2-1.1,0.7c-0.2,0.5-0.4,1.2-0.4,2.2
				c0,0.7,0.1,1.3,0.2,1.7c0.2,0.7,0.6,1,1.2,1C145.3,79.3,145.7,79.1,146,78.7z"/>
		</g>
		<g>
			<path class="st3" d="M132.9,46.3V47c-0.2,0.2-0.5,0.6-0.9,1.1c-0.4,0.5-0.7,1.1-1,1.7c-0.3,0.6-0.5,1.2-0.6,1.7
				c-0.1,0.3-0.2,0.8-0.4,1.6h-1c0.2-1.3,0.7-2.7,1.5-4c0.4-0.8,0.9-1.4,1.4-2H128v-0.9H132.9z"/>
			<path class="st3" d="M138.4,47.3c0.3,0.6,0.5,1.4,0.5,2.4c0,1-0.1,1.7-0.4,2.4c-0.4,0.9-1.1,1.3-2,1.3c-0.8,0-1.5-0.4-1.9-1.1
				c-0.3-0.6-0.5-1.4-0.5-2.5c0-0.8,0.1-1.5,0.3-2c0.4-1.1,1.1-1.6,2.1-1.6C137.3,46.2,138,46.5,138.4,47.3z M137.5,51.9
				c0.3-0.4,0.4-1.2,0.4-2.3c0-0.8-0.1-1.4-0.3-2c-0.2-0.5-0.6-0.8-1.1-0.8c-0.5,0-0.9,0.2-1.1,0.7c-0.2,0.5-0.4,1.2-0.4,2.2
				c0,0.7,0.1,1.3,0.2,1.7c0.2,0.7,0.6,1,1.2,1C136.9,52.5,137.2,52.3,137.5,51.9z"/>
		</g>
		<g>
			<path class="st3" d="M112.1,27.6c0.3,0.4,0.5,0.8,0.5,1.3h-0.9c-0.1-0.3-0.1-0.5-0.2-0.6c-0.2-0.3-0.5-0.4-1-0.4
				c-0.5,0-0.9,0.2-1.2,0.7s-0.5,1.1-0.5,2c0.2-0.3,0.5-0.5,0.8-0.7c0.3-0.1,0.6-0.2,0.9-0.2c0.6,0,1.1,0.2,1.5,0.6s0.7,0.9,0.7,1.7
				c0,0.6-0.2,1.2-0.6,1.7s-1,0.7-1.8,0.7c-0.7,0-1.2-0.2-1.7-0.7s-0.7-1.3-0.7-2.5c0-0.9,0.1-1.6,0.3-2.2c0.4-1.2,1.2-1.7,2.2-1.7
				C111.3,27,111.8,27.2,112.1,27.6z M111.5,33c0.2-0.3,0.3-0.7,0.3-1.1c0-0.4-0.1-0.7-0.3-1s-0.6-0.5-1.1-0.5c-0.4,0-0.7,0.1-1,0.4
				c-0.3,0.3-0.4,0.6-0.4,1.1c0,0.4,0.1,0.8,0.4,1.1c0.3,0.3,0.6,0.5,1.1,0.5C110.9,33.4,111.2,33.3,111.5,33z"/>
			<path class="st3" d="M118.3,28.2c0.3,0.6,0.5,1.4,0.5,2.4c0,1-0.1,1.7-0.4,2.4c-0.4,0.9-1.1,1.3-2,1.3c-0.8,0-1.5-0.4-1.9-1.1
				c-0.3-0.6-0.5-1.4-0.5-2.5c0-0.8,0.1-1.5,0.3-2c0.4-1.1,1.1-1.6,2.1-1.6C117.2,27,117.9,27.4,118.3,28.2z M117.4,32.8
				c0.3-0.4,0.4-1.2,0.4-2.3c0-0.8-0.1-1.4-0.3-2c-0.2-0.5-0.6-0.8-1.1-0.8c-0.5,0-0.9,0.2-1.1,0.7c-0.2,0.5-0.4,1.2-0.4,2.2
				c0,0.7,0.1,1.3,0.2,1.7c0.2,0.7,0.6,1,1.2,1C116.8,33.4,117.1,33.2,117.4,32.8z"/>
		</g>
		<g>
			<path class="st3" d="M43.3,128.2c0.3,0.6,0.5,1.4,0.5,2.4c0,1-0.1,1.7-0.4,2.4c-0.4,0.9-1.1,1.3-2,1.3c-0.8,0-1.5-0.4-1.9-1.1
				c-0.3-0.6-0.5-1.4-0.5-2.5c0-0.8,0.1-1.5,0.3-2c0.4-1.1,1.1-1.6,2.1-1.6C42.2,127.1,42.9,127.4,43.3,128.2z M42.4,132.8
				c0.3-0.4,0.4-1.2,0.4-2.3c0-0.8-0.1-1.4-0.3-2c-0.2-0.5-0.6-0.8-1.1-0.8c-0.5,0-0.9,0.2-1.1,0.7c-0.2,0.5-0.4,1.2-0.4,2.2
				c0,0.7,0.1,1.3,0.2,1.7c0.2,0.7,0.6,1,1.2,1C41.8,133.4,42.1,133.2,42.4,132.8z"/>
		</g>
		<g>
			<path class="st3" d="M134.7,105.7c0,0.5,0.2,0.8,0.6,1c0.2,0.1,0.4,0.1,0.6,0.1c0.4,0,0.8-0.2,1.1-0.5c0.3-0.3,0.5-1.1,0.6-2.1
				c-0.2,0.3-0.4,0.5-0.7,0.7c-0.3,0.1-0.6,0.2-0.9,0.2c-0.7,0-1.2-0.2-1.6-0.6c-0.4-0.4-0.6-1-0.6-1.6c0-0.6,0.2-1.2,0.6-1.7
				s1-0.7,1.7-0.7c1,0,1.7,0.5,2.1,1.4c0.2,0.5,0.3,1.1,0.3,1.9c0,0.9-0.1,1.6-0.4,2.3c-0.4,1.1-1.1,1.6-2.2,1.6
				c-0.7,0-1.2-0.2-1.6-0.5c-0.4-0.4-0.5-0.8-0.5-1.3H134.7z M137,104c0.3-0.2,0.4-0.6,0.4-1.2c0-0.5-0.1-0.9-0.4-1.1
				c-0.3-0.3-0.6-0.4-1-0.4c-0.4,0-0.8,0.1-1,0.4c-0.3,0.3-0.4,0.7-0.4,1.2c0,0.5,0.1,0.8,0.3,1.1c0.2,0.3,0.6,0.4,1.1,0.4
				C136.4,104.3,136.7,104.2,137,104z"/>
			<path class="st3" d="M144.1,101.6c0.3,0.6,0.5,1.4,0.5,2.4c0,1-0.1,1.7-0.4,2.4c-0.4,0.9-1.1,1.3-2,1.3c-0.8,0-1.5-0.4-1.9-1.1
				c-0.3-0.6-0.5-1.4-0.5-2.5c0-0.8,0.1-1.5,0.3-2c0.4-1.1,1.1-1.6,2.1-1.6C143.1,100.4,143.7,100.8,144.1,101.6z M143.3,106.2
				c0.3-0.4,0.4-1.2,0.4-2.3c0-0.8-0.1-1.4-0.3-2c-0.2-0.5-0.6-0.8-1.1-0.8c-0.5,0-0.9,0.2-1.1,0.7c-0.2,0.5-0.4,1.2-0.4,2.2
				c0,0.7,0.1,1.3,0.2,1.7c0.2,0.7,0.6,1,1.2,1C142.6,106.8,143,106.6,143.3,106.2z"/>
		</g>
	</g>
</g>
<circle class="st1" cx="85.1" cy="85.6" r="6.4"/>
</svg>
