<?xml version="1.0" encoding="utf-8"?>
<!-- Generator: Adobe Illustrator 22.1.0, SVG Export Plug-In . SVG Version: 6.00 Build 0)  -->
<svg version="1.1" id="Layer_1" xmlns="http://www.w3.org/2000/svg" xmlns:xlink="http://www.w3.org/1999/xlink" x="0px" y="0px"
	 viewBox="0 0 220 160" style="enable-background:new 0 0 220 160;" xml:space="preserve">
<style type="text/css">
	.st0{opacity:0.44;}
	.st1{fill:#FFFFFF;}
	.st2{fill:none;}
	.st3{fill:#231F20;}
	.st4{opacity:0.44;enable-background:new    ;}
	.st5{font-family:'Arial-BoldMT';}
	.st6{font-size:36.1566px;}
	.st7{opacity:0.44;fill:#5E5E5E;enable-background:new    ;}
	.st8{font-family:'ArialMT';}
	.st9{font-size:18.3088px;}
</style>
<title>Asset 5</title>
<g id="Layer_2_1_">
	<g id="Layer_1-2">
		<g class="st0">
			<rect x="5.8" y="32.6" class="st1" width="208.4" height="54.5"/>
			<rect x="0.3" y="70.7" class="st2" width="10.9" height="10.9"/>
			<rect x="5.4" y="71.5" class="st3" width="1.1" height="2"/>
			<rect x="5.4" y="75.2" class="st3" width="1.1" height="2"/>
			<rect x="5.4" y="78.8" class="st3" width="1.1" height="2"/>
			<rect x="0.3" y="59.8" class="st2" width="10.9" height="10.9"/>
			<rect x="5.4" y="60.6" class="st3" width="1.1" height="2"/>
			<rect x="5.4" y="64.3" class="st3" width="1.1" height="2"/>
			<rect x="5.4" y="67.9" class="st3" width="1.1" height="2"/>
			<rect x="0.3" y="48.9" class="st2" width="10.9" height="10.9"/>
			<rect x="5.4" y="49.8" class="st3" width="1.1" height="2"/>
			<rect x="5.4" y="53.4" class="st3" width="1.1" height="2"/>
			<rect x="5.4" y="57" class="st3" width="1.1" height="2"/>
			<rect x="0.3" y="38" class="st2" width="10.9" height="10.9"/>
			<rect x="5.4" y="38.8" class="st3" width="1.1" height="2"/>
			<rect x="5.4" y="42.5" class="st3" width="1.1" height="2"/>
			<rect x="5.4" y="46.1" class="st3" width="1.1" height="2"/>
			<rect x="11.2" y="27.1" class="st2" width="9.9" height="10.9"/>
			<rect x="18.6" y="32.2" class="st3" width="1.8" height="1.1"/>
			<rect x="15.3" y="32.2" class="st3" width="1.8" height="1.1"/>
			<rect x="12" y="32.2" class="st3" width="1.8" height="1.1"/>
			<rect x="21.1" y="27.1" class="st2" width="9.9" height="10.9"/>
			<rect x="28.4" y="32.2" class="st3" width="1.8" height="1.1"/>
			<rect x="25.1" y="32.2" class="st3" width="1.8" height="1.1"/>
			<rect x="21.9" y="32.2" class="st3" width="1.8" height="1.1"/>
			<rect x="31" y="27.1" class="st2" width="9.9" height="10.9"/>
			<rect x="38.3" y="32.2" class="st3" width="1.8" height="1.1"/>
			<rect x="35" y="32.2" class="st3" width="1.8" height="1.1"/>
			<rect x="31.7" y="32.2" class="st3" width="1.8" height="1.1"/>
			<rect x="40.9" y="27.1" class="st2" width="9.9" height="10.9"/>
			<rect x="48.2" y="32.2" class="st3" width="1.8" height="1.1"/>
			<rect x="44.9" y="32.2" class="st3" width="1.8" height="1.1"/>
			<rect x="41.6" y="32.2" class="st3" width="1.8" height="1.1"/>
			<rect x="50.7" y="27.1" class="st2" width="9.9" height="10.9"/>
			<rect x="58" y="32.2" class="st3" width="1.8" height="1.1"/>
			<rect x="54.8" y="32.2" class="st3" width="1.8" height="1.1"/>
			<rect x="51.5" y="32.2" class="st3" width="1.8" height="1.1"/>
			<rect x="60.6" y="27.1" class="st2" width="9.9" height="10.9"/>
			<rect x="67.9" y="32.2" class="st3" width="1.8" height="1.1"/>
			<rect x="64.6" y="32.2" class="st3" width="1.8" height="1.1"/>
			<rect x="61.4" y="32.2" class="st3" width="1.8" height="1.1"/>
			<rect x="70.5" y="27.1" class="st2" width="9.9" height="10.9"/>
			<rect x="77.8" y="32.2" class="st3" width="1.8" height="1.1"/>
			<rect x="74.5" y="32.2" class="st3" width="1.8" height="1.1"/>
			<rect x="71.2" y="32.2" class="st3" width="1.8" height="1.1"/>
			<rect x="80.4" y="27.1" class="st2" width="9.9" height="10.9"/>
			<rect x="87.7" y="32.2" class="st3" width="1.8" height="1.1"/>
			<rect x="84.4" y="32.2" class="st3" width="1.8" height="1.1"/>
			<rect x="81.1" y="32.2" class="st3" width="1.8" height="1.1"/>
			<rect x="90.2" y="27.1" class="st2" width="9.9" height="10.9"/>
			<rect x="97.5" y="32.2" class="st3" width="1.8" height="1.1"/>
			<rect x="94.3" y="32.2" class="st3" width="1.8" height="1.1"/>
			<rect x="91" y="32.2" class="st3" width="1.8" height="1.1"/>
			<rect x="100.1" y="27.1" class="st2" width="9.9" height="10.9"/>
			<rect x="107.4" y="32.2" class="st3" width="1.8" height="1.1"/>
			<rect x="104.1" y="32.2" class="st3" width="1.8" height="1.1"/>
			<rect x="100.9" y="32.2" class="st3" width="1.8" height="1.1"/>
			<rect x="110" y="27.1" class="st2" width="9.9" height="10.9"/>
			<rect x="117.3" y="32.2" class="st3" width="1.8" height="1.1"/>
			<rect x="114" y="32.2" class="st3" width="1.8" height="1.1"/>
			<rect x="110.7" y="32.2" class="st3" width="1.8" height="1.1"/>
			<rect x="119.9" y="27.1" class="st2" width="9.9" height="10.9"/>
			<rect x="127.2" y="32.2" class="st3" width="1.8" height="1.1"/>
			<rect x="123.9" y="32.2" class="st3" width="1.8" height="1.1"/>
			<rect x="120.6" y="32.2" class="st3" width="1.8" height="1.1"/>
			<rect x="129.7" y="27.1" class="st2" width="9.9" height="10.9"/>
			<rect x="137" y="32.2" class="st3" width="1.8" height="1.1"/>
			<rect x="133.8" y="32.2" class="st3" width="1.8" height="1.1"/>
			<rect x="130.5" y="32.2" class="st3" width="1.8" height="1.1"/>
			<rect x="139.6" y="27.1" class="st2" width="9.9" height="10.9"/>
			<rect x="146.9" y="32.2" class="st3" width="1.8" height="1.1"/>
			<rect x="143.6" y="32.2" class="st3" width="1.8" height="1.1"/>
			<rect x="140.4" y="32.2" class="st3" width="1.8" height="1.1"/>
			<rect x="149.5" y="27.1" class="st2" width="9.9" height="10.9"/>
			<rect x="156.8" y="32.2" class="st3" width="1.8" height="1.1"/>
			<rect x="153.5" y="32.2" class="st3" width="1.8" height="1.1"/>
			<rect x="150.2" y="32.2" class="st3" width="1.8" height="1.1"/>
			<rect x="159.3" y="27.1" class="st2" width="9.9" height="10.9"/>
			<rect x="166.7" y="32.2" class="st3" width="1.8" height="1.1"/>
			<rect x="163.4" y="32.2" class="st3" width="1.8" height="1.1"/>
			<rect x="160.1" y="32.2" class="st3" width="1.8" height="1.1"/>
			<rect x="169.2" y="27.1" class="st2" width="9.9" height="10.9"/>
			<rect x="176.5" y="32.2" class="st3" width="1.8" height="1.1"/>
			<rect x="173.3" y="32.2" class="st3" width="1.8" height="1.1"/>
			<rect x="170" y="32.2" class="st3" width="1.8" height="1.1"/>
			<rect x="179.1" y="27.1" class="st2" width="9.9" height="10.9"/>
			<rect x="186.4" y="32.2" class="st3" width="1.8" height="1.1"/>
			<rect x="183.1" y="32.2" class="st3" width="1.8" height="1.1"/>
			<rect x="179.8" y="32.2" class="st3" width="1.8" height="1.1"/>
			<rect x="189" y="27.1" class="st2" width="9.9" height="10.9"/>
			<rect x="196.3" y="32.2" class="st3" width="1.8" height="1.1"/>
			<rect x="193" y="32.2" class="st3" width="1.8" height="1.1"/>
			<rect x="189.7" y="32.2" class="st3" width="1.8" height="1.1"/>
			<rect x="198.8" y="27.1" class="st2" width="9.9" height="10.9"/>
			<rect x="206.2" y="32.2" class="st3" width="1.8" height="1.1"/>
			<rect x="202.9" y="32.2" class="st3" width="1.8" height="1.1"/>
			<rect x="199.6" y="32.2" class="st3" width="1.8" height="1.1"/>
			<rect x="208.7" y="38" class="st2" width="10.9" height="10.9"/>
			<rect x="213.5" y="46.1" class="st3" width="1.1" height="2"/>
			<rect x="213.5" y="42.5" class="st3" width="1.1" height="2"/>
			<rect x="213.5" y="38.9" class="st3" width="1.1" height="2"/>
			<rect x="208.7" y="48.9" class="st2" width="10.9" height="10.9"/>
			<rect x="213.5" y="57" class="st3" width="1.1" height="2"/>
			<rect x="213.5" y="53.4" class="st3" width="1.1" height="2"/>
			<rect x="213.5" y="49.8" class="st3" width="1.1" height="2"/>
			<rect x="208.7" y="59.8" class="st2" width="10.9" height="10.9"/>
			<rect x="213.5" y="67.9" class="st3" width="1.1" height="2"/>
			<rect x="213.5" y="64.3" class="st3" width="1.1" height="2"/>
			<rect x="213.5" y="60.7" class="st3" width="1.1" height="2"/>
			<rect x="208.7" y="70.7" class="st2" width="10.9" height="10.9"/>
			<rect x="213.5" y="78.8" class="st3" width="1.1" height="2"/>
			<rect x="213.5" y="75.2" class="st3" width="1.1" height="2"/>
			<rect x="213.5" y="71.6" class="st3" width="1.1" height="2"/>
			<rect x="198.8" y="81.6" class="st2" width="9.9" height="10.9"/>
			<rect x="199.6" y="86.4" class="st3" width="1.8" height="1.1"/>
			<rect x="202.9" y="86.4" class="st3" width="1.8" height="1.1"/>
			<rect x="206.1" y="86.4" class="st3" width="1.8" height="1.1"/>
			<rect x="189" y="81.6" class="st2" width="9.9" height="10.9"/>
			<rect x="189.7" y="86.4" class="st3" width="1.8" height="1.1"/>
			<rect x="193" y="86.4" class="st3" width="1.8" height="1.1"/>
			<rect x="196.3" y="86.4" class="st3" width="1.8" height="1.1"/>
			<rect x="179.1" y="81.6" class="st2" width="9.9" height="10.9"/>
			<rect x="179.8" y="86.4" class="st3" width="1.8" height="1.1"/>
			<rect x="183.1" y="86.4" class="st3" width="1.8" height="1.1"/>
			<rect x="186.4" y="86.4" class="st3" width="1.8" height="1.1"/>
			<rect x="169.2" y="81.6" class="st2" width="9.9" height="10.9"/>
			<rect x="170" y="86.4" class="st3" width="1.8" height="1.1"/>
			<rect x="173.2" y="86.4" class="st3" width="1.8" height="1.1"/>
			<rect x="176.5" y="86.4" class="st3" width="1.8" height="1.1"/>
			<rect x="159.3" y="81.6" class="st2" width="9.9" height="10.9"/>
			<rect x="160.1" y="86.4" class="st3" width="1.8" height="1.1"/>
			<rect x="163.4" y="86.4" class="st3" width="1.8" height="1.1"/>
			<rect x="166.6" y="86.4" class="st3" width="1.8" height="1.1"/>
			<rect x="149.5" y="81.6" class="st2" width="9.9" height="10.9"/>
			<rect x="150.2" y="86.4" class="st3" width="1.8" height="1.1"/>
			<rect x="153.5" y="86.4" class="st3" width="1.8" height="1.1"/>
			<rect x="156.8" y="86.4" class="st3" width="1.8" height="1.1"/>
			<rect x="139.6" y="81.6" class="st2" width="9.9" height="10.9"/>
			<rect x="140.3" y="86.4" class="st3" width="1.8" height="1.1"/>
			<rect x="143.6" y="86.4" class="st3" width="1.8" height="1.1"/>
			<rect x="146.9" y="86.4" class="st3" width="1.8" height="1.1"/>
			<rect x="129.7" y="81.6" class="st2" width="9.9" height="10.9"/>
			<rect x="130.5" y="86.4" class="st3" width="1.8" height="1.1"/>
			<rect x="133.8" y="86.4" class="st3" width="1.8" height="1.1"/>
			<rect x="137" y="86.4" class="st3" width="1.8" height="1.1"/>
			<rect x="119.9" y="81.6" class="st2" width="9.9" height="10.9"/>
			<rect x="120.6" y="86.4" class="st3" width="1.8" height="1.1"/>
			<rect x="123.9" y="86.4" class="st3" width="1.8" height="1.1"/>
			<rect x="127.1" y="86.4" class="st3" width="1.8" height="1.1"/>
			<rect x="110" y="81.6" class="st2" width="9.9" height="10.9"/>
			<rect x="110.7" y="86.4" class="st3" width="1.8" height="1.1"/>
			<rect x="114" y="86.4" class="st3" width="1.8" height="1.1"/>
			<rect x="117.3" y="86.4" class="st3" width="1.8" height="1.1"/>
			<rect x="100.1" y="81.6" class="st2" width="9.9" height="10.9"/>
			<rect x="100.8" y="86.4" class="st3" width="1.8" height="1.1"/>
			<rect x="104.1" y="86.4" class="st3" width="1.8" height="1.1"/>
			<rect x="107.4" y="86.4" class="st3" width="1.8" height="1.1"/>
			<rect x="90.2" y="81.6" class="st2" width="9.9" height="10.9"/>
			<rect x="91" y="86.4" class="st3" width="1.8" height="1.1"/>
			<rect x="94.3" y="86.4" class="st3" width="1.8" height="1.1"/>
			<rect x="97.5" y="86.4" class="st3" width="1.8" height="1.1"/>
			<rect x="80.4" y="81.6" class="st2" width="9.9" height="10.9"/>
			<rect x="81.1" y="86.4" class="st3" width="1.8" height="1.1"/>
			<rect x="84.4" y="86.4" class="st3" width="1.8" height="1.1"/>
			<rect x="87.7" y="86.4" class="st3" width="1.8" height="1.1"/>
			<rect x="70.5" y="81.6" class="st2" width="9.9" height="10.9"/>
			<rect x="71.2" y="86.4" class="st3" width="1.8" height="1.1"/>
			<rect x="74.5" y="86.4" class="st3" width="1.8" height="1.1"/>
			<rect x="77.8" y="86.4" class="st3" width="1.8" height="1.1"/>
			<rect x="60.6" y="81.6" class="st2" width="9.9" height="10.9"/>
			<rect x="61.3" y="86.4" class="st3" width="1.8" height="1.1"/>
			<rect x="64.6" y="86.4" class="st3" width="1.8" height="1.1"/>
			<rect x="67.9" y="86.4" class="st3" width="1.8" height="1.1"/>
			<rect x="50.7" y="81.6" class="st2" width="9.9" height="10.9"/>
			<rect x="51.5" y="86.4" class="st3" width="1.8" height="1.1"/>
			<rect x="54.7" y="86.4" class="st3" width="1.8" height="1.1"/>
			<rect x="58" y="86.4" class="st3" width="1.8" height="1.1"/>
			<rect x="40.9" y="81.6" class="st2" width="9.9" height="10.9"/>
			<rect x="41.6" y="86.4" class="st3" width="1.8" height="1.1"/>
			<rect x="44.9" y="86.4" class="st3" width="1.8" height="1.1"/>
			<rect x="48.2" y="86.4" class="st3" width="1.8" height="1.1"/>
			<rect x="31" y="81.6" class="st2" width="9.9" height="10.9"/>
			<rect x="31.7" y="86.4" class="st3" width="1.8" height="1.1"/>
			<rect x="35" y="86.4" class="st3" width="1.8" height="1.1"/>
			<rect x="38.3" y="86.4" class="st3" width="1.8" height="1.1"/>
			<rect x="21.1" y="81.6" class="st2" width="9.9" height="10.9"/>
			<rect x="21.8" y="86.4" class="st3" width="1.8" height="1.1"/>
			<rect x="25.1" y="86.4" class="st3" width="1.8" height="1.1"/>
			<rect x="28.4" y="86.4" class="st3" width="1.8" height="1.1"/>
			<rect x="11.2" y="81.6" class="st2" width="9.9" height="10.9"/>
			<rect x="12" y="86.4" class="st3" width="1.8" height="1.1"/>
			<rect x="15.3" y="86.4" class="st3" width="1.8" height="1.1"/>
			<rect x="18.5" y="86.4" class="st3" width="1.8" height="1.1"/>
			<rect x="5.3" y="35.5" class="st3" width="1.1" height="1.8"/>
			<polygon class="st3" points="5.3,32.2 5.3,34 6.4,34 6.4,33.3 7.1,33.3 7.1,32.2 			"/>
			<rect x="8.6" y="32.2" class="st3" width="1.8" height="1.1"/>
			<rect x="209.5" y="32.1" class="st3" width="1.8" height="1.1"/>
			<polygon class="st3" points="214.6,32.1 212.8,32.1 212.8,33.2 213.5,33.2 213.5,33.9 214.6,33.9 			"/>
			<rect x="213.5" y="35.4" class="st3" width="1.1" height="1.8"/>
			<rect x="213.6" y="82.4" class="st3" width="1.1" height="1.8"/>
			<polygon class="st3" points="214.6,87.5 214.6,85.7 213.5,85.7 213.5,86.4 212.8,86.4 212.8,87.5 			"/>
			<rect x="209.6" y="86.4" class="st3" width="1.8" height="1.1"/>
			<rect x="8.7" y="86.5" class="st3" width="1.8" height="1.1"/>
			<polygon class="st3" points="5.4,87.6 7.2,87.6 7.2,86.5 6.5,86.5 6.5,85.8 5.4,85.8 			"/>
			<rect x="5.4" y="82.5" class="st3" width="1.1" height="1.8"/>
		</g>
		<text transform="matrix(1 0 0 1 78.6548 72.5635)" class="st4 st5 st6">1516.12</text>
		<text transform="matrix(1 0 0 1 97.0005 121.373)" class="st7 st8 st9">DB</text>
		<rect class="st2" width="220" height="160"/>
	</g>
</g>
</svg>
